<svg width="9" height="15" viewBox="0 0 9 15" fill="none" xmlns="http://www.w3.org/2000/svg">
<mask id="mask0_879_715" style="mask-type:luminance" maskUnits="userSpaceOnUse" x="0" y="0" width="9" height="15">
<path d="M9.53674e-07 14.312H8.026V1.14441e-05H9.53674e-07V14.312Z" fill="white"/>
</mask>
<g mask="url(#mask0_879_715)">
<path d="M1.19739 0.47752L7.6363 6.76649C7.68902 6.81749 7.73095 6.87858 7.75959 6.94612C7.78822 7.01367 7.80298 7.08628 7.80298 7.15964C7.80298 7.233 7.78822 7.30561 7.75959 7.37315C7.73095 7.44069 7.68902 7.50178 7.6363 7.55279C7.52846 7.65734 7.38415 7.71581 7.23396 7.71582C7.08375 7.71582 6.93945 7.65734 6.83161 7.55279L0.392696 1.26382C0.339966 1.21282 0.298036 1.15172 0.269406 1.08412C0.240766 1.01662 0.226016 0.94402 0.226016 0.87062C0.226016 0.79722 0.240766 0.72462 0.269406 0.65712C0.298036 0.58962 0.339966 0.52852 0.392696 0.47752C0.500536 0.37292 0.644836 0.31442 0.795036 0.31442C0.945236 0.31442 1.08955 0.37292 1.19739 0.47752Z" fill="#EBF1FE"/>
<path d="M0.392632 13.0498L6.83154 6.76078C6.93938 6.65623 7.08369 6.59776 7.23389 6.59776C7.38409 6.59776 7.5284 6.65623 7.63623 6.76078C7.68896 6.81179 7.73089 6.87288 7.75953 6.94042C7.78816 7.00796 7.80292 7.08057 7.80292 7.15393C7.80292 7.2273 7.78816 7.29991 7.75953 7.36745C7.73089 7.43499 7.68896 7.49608 7.63623 7.54709L1.19732 13.8361C1.0893 13.9405 0.944893 13.9987 0.794693 13.9984C0.644483 13.9981 0.500282 13.9394 0.392632 13.8347C0.340122 13.7837 0.298382 13.7227 0.269872 13.6553C0.241362 13.5879 0.226682 13.5154 0.226682 13.4422C0.226682 13.369 0.241362 13.2966 0.269872 13.2292C0.298382 13.1618 0.340122 13.1008 0.392632 13.0498Z" fill="#EBF1FE"/>
</g>
</svg>
