<svg width="19" height="20" viewBox="0 0 19 20" fill="none" xmlns="http://www.w3.org/2000/svg">
<path d="M17.5936 0.00186296C17.3481 0.0152472 17.1168 0.0988984 16.9112 0.192588H16.9084C16.6999 0.289623 15.7092 0.778148 14.2045 1.51763C12.6998 2.26045 10.7468 3.22411 8.80814 4.18109C4.93648 6.09168 1.13049 7.97217 1.13049 7.97217L1.17618 7.95209C1.17618 7.95209 0.913499 8.05247 0.639399 8.27331C0.499495 8.38039 0.345313 8.52761 0.211119 8.75849C0.0769242 8.98937 -0.031574 9.34405 0.00839927 9.70877C0.0740692 10.3278 0.416694 10.6992 0.662241 10.9033C0.910644 11.1108 1.14763 11.2078 1.14763 11.2078H1.15334L4.72234 12.6165C4.88223 13.2188 5.81018 16.7924 6.03288 17.6155C6.16422 18.1074 6.29271 18.4152 6.4526 18.6494C6.52969 18.7699 6.62105 18.8703 6.72955 18.9506C6.77238 18.9807 6.81806 19.0041 6.86375 19.0242C6.87802 19.0342 6.8923 19.0376 6.90943 19.0409L6.87231 19.0309C6.88373 19.0342 6.8923 19.0443 6.90086 19.0476C6.92942 19.0576 6.9494 19.061 6.98652 19.0677C7.55185 19.2685 8.00583 18.8569 8.00583 18.8569L8.03152 18.8335L10.1387 16.5849L13.6706 19.7603L13.7505 19.8005C14.4871 20.1786 15.2324 19.9678 15.6264 19.5964C16.0232 19.2216 16.1774 18.7431 16.1774 18.7431L16.2031 18.6662L18.9327 2.28053C19.0098 1.87565 19.0298 1.49755 18.9441 1.12948C18.8585 0.761418 18.6386 0.416774 18.3731 0.232741C18.1047 0.0453615 17.8392 -0.0115213 17.5936 0.00186296ZM17.5194 1.75854C17.5165 1.81208 17.5251 1.80539 17.5051 1.90911V1.91915L14.8012 18.1341C14.7898 18.1576 14.7698 18.2077 14.7156 18.2579C14.6585 18.3115 14.6128 18.3449 14.3758 18.2345L10.0559 14.3531L7.44621 17.1404L7.99441 13.0381C7.99441 13.0381 14.7612 5.64666 15.0525 5.32878C15.3437 5.01091 15.2466 4.94399 15.2466 4.94399C15.2666 4.55584 14.8069 4.83022 14.8069 4.83022L5.90725 11.2915L5.9044 11.2747L1.63872 9.59166V9.58831C1.63587 9.58831 1.63016 9.58497 1.6273 9.58497C1.63016 9.58497 1.65014 9.57493 1.65014 9.57493L1.67298 9.56154L1.69583 9.5515C1.69583 9.5515 5.50467 7.67102 9.37633 5.76042C11.315 4.80345 13.268 3.83979 14.7698 3.09696C16.2716 2.35749 17.3823 1.81542 17.4451 1.78531C17.5051 1.75854 17.4765 1.75854 17.5194 1.75854Z" fill="white" fill-opacity="0.8"/>
</svg>
