<svg width="18" height="14" viewBox="0 0 18 14" fill="none" xmlns="http://www.w3.org/2000/svg">
<path fill-rule="evenodd" clip-rule="evenodd" d="M15.4916 8.90184C16.0886 9.70303 16.7188 10.4568 17.2544 11.3388C17.4909 11.7308 17.7149 12.1352 17.8862 12.5901C18.129 13.2367 17.9091 13.9482 17.4873 13.9868L14.865 13.9852C14.1886 14.0623 13.6491 13.6881 13.1954 13.0526C12.8324 12.5443 12.4962 12.0034 12.1471 11.478C12.0039 11.2632 11.8541 11.0612 11.6752 10.9015C11.3172 10.5821 11.0065 10.6799 10.8019 11.193C10.5935 11.7149 10.5463 12.2928 10.5258 12.8745C10.4977 13.7232 10.3111 13.9463 9.69083 13.9851C8.36525 14.071 7.10722 13.7954 5.93854 12.8764C4.9082 12.0661 4.10921 10.9223 3.41377 9.62744C2.05975 7.10599 1.02284 4.33534 0.0909061 1.48705C-0.118865 0.845332 0.0345452 0.50086 0.549718 0.488667C1.40519 0.465827 2.26053 0.467453 3.11701 0.487042C3.46469 0.494032 3.69487 0.768114 3.82912 1.21955C4.29195 2.78366 4.85828 4.27177 5.56915 5.65113C5.75846 6.01836 5.95149 6.38559 6.22638 6.64407C6.53048 6.93026 6.76201 6.83541 6.90507 6.36982C6.99586 6.07461 7.0356 5.75663 7.05606 5.44045C7.12384 4.35265 7.13277 3.26672 7.01389 2.18275C6.94091 1.50624 6.66366 1.06829 6.1725 0.94027C5.92186 0.875 5.95918 0.746819 6.08054 0.550198C6.29131 0.21109 6.48955 0 6.88473 0H9.84832C10.3149 0.126556 10.4185 0.414619 10.4824 1.05984L10.4849 5.58423C10.4798 5.83401 10.5757 6.57522 10.903 6.74055C11.165 6.85825 11.3377 6.57018 11.4949 6.34186C12.2045 5.30682 12.7109 4.08361 13.1633 2.81699C13.3641 2.26004 13.5367 1.68164 13.704 1.10373C13.828 0.674884 14.0225 0.463876 14.374 0.473223L17.2263 0.476719C17.3108 0.476719 17.3964 0.478426 17.4783 0.49769C17.959 0.610265 18.0907 0.894427 17.9422 1.53948C17.7083 2.55152 17.2532 3.3949 16.8083 4.24219C16.3326 5.14677 15.8239 6.02039 15.3522 6.93034C14.9188 7.76129 14.9532 8.18014 15.4916 8.90184Z" fill="white"/>
</svg>
