<svg width="24" height="26" viewBox="0 0 24 26" fill="none" xmlns="http://www.w3.org/2000/svg">
<path d="M12.2631 2.21875C17.4952 2.21875 21.7368 7.04568 21.7368 13C21.7368 18.9543 17.4952 23.7812 12.2631 23.7812C10.5923 23.7812 9.02035 23.2882 7.65599 22.4225L7.36684 22.2313L4.49445 23.1928C3.80251 23.4245 3.15722 22.7386 3.28194 21.9585L3.30651 21.8408L4.15133 18.5721C3.28684 16.9453 2.78943 15.0372 2.78943 13C2.78943 7.04568 7.03094 2.21875 12.2631 2.21875ZM12.2631 4.375C8.07737 4.375 4.68417 8.23654 4.68417 13C4.68417 14.7001 5.11541 16.2822 5.85983 17.6163C6.04776 17.9532 6.12771 18.367 6.06403 18.7776L6.02784 18.9531L5.60943 20.572L7.032 20.0959C7.44172 19.9588 7.8684 20.0426 8.20664 20.287C9.37898 21.1342 10.7692 21.625 12.2631 21.625C16.4489 21.625 19.8421 17.7635 19.8421 13C19.8421 8.23654 16.4489 4.375 12.2631 4.375ZM9.51728 7.80784C9.72176 7.70811 9.96943 7.72635 10.1652 7.88889C10.6431 8.2856 11.0225 8.81769 11.3483 9.33809L11.658 9.84914C11.7072 9.93184 11.7553 10.0129 11.8025 10.0915C11.9754 10.3793 11.9555 10.7617 11.7596 11.0227L11.6878 11.1049L10.813 11.8442C10.7263 11.9176 10.6974 12.0507 10.7494 12.1585C10.9474 12.5685 11.3 13.1786 11.7035 13.6378C12.1075 14.0975 12.669 14.5248 13.054 14.7753C13.1372 14.8295 13.2383 14.8124 13.3062 14.7419L13.3425 14.6933L13.9117 13.7067C14.1299 13.3763 14.5375 13.304 14.8337 13.5373L15.348 13.9453C15.859 14.3604 16.351 14.8066 16.7399 15.3734C16.8931 15.5967 16.9158 15.8885 16.8245 16.1311C16.4493 17.1274 15.4998 17.9759 14.5122 17.9345L14.362 17.9246L14.1801 17.9041C14.1473 17.8996 14.1133 17.8946 14.0781 17.8889L13.8529 17.8464C12.9778 17.6584 11.574 17.0937 10.1204 15.4395C8.66687 13.7853 8.17064 12.1877 8.00538 11.1918L7.96805 10.9356L7.94431 10.7116L7.93133 10.5224C7.9299 10.4939 7.92881 10.4669 7.92799 10.4416C7.89159 9.31598 8.64121 8.23512 9.51728 7.80784Z" fill="white" fill-opacity="0.8"/>
</svg>
